<svg width="40" height="40" viewBox="0 0 40 40" fill="none" xmlns="http://www.w3.org/2000/svg">
<circle cx="20" cy="20" r="20" fill="#116A7B" fill-opacity="0.5"/>
<path fill-rule="evenodd" clip-rule="evenodd" d="M24.1905 18.0952C24.1905 21.4615 21.4615 24.1905 18.0952 24.1905C14.7289 24.1905 12 21.4615 12 18.0952C12 14.7289 14.7289 12 18.0952 12C21.4615 12 24.1905 14.7289 24.1905 18.0952ZM22.6602 24.7815C21.3606 25.6705 19.7886 26.1905 18.0952 26.1905C13.6244 26.1905 10 22.5661 10 18.0952C10 13.6244 13.6244 10 18.0952 10C22.5661 10 26.1905 13.6244 26.1905 18.0952C26.1905 19.7887 25.6705 21.3606 24.7815 22.6602L29.0607 26.9393C29.6464 27.5251 29.6464 28.4749 29.0607 29.0607C28.4749 29.6464 27.5251 29.6464 26.9393 29.0607L22.6602 24.7815Z" fill="#BEDBDF"/>
</svg>
